# xmcd
#
# Track frame offsets:
#  150
#  12539
#  26596
#  39395
#  54349
#  64852
#  80684
#  91234
#  104534
#  119488
#  131413
#  146737
#  155804
#  174087
#  195038
#  198425
#  216045
#  236304
#  253078
#
# Disc length: 3569 seconds
#
# Revision: 0
# Processed by: cddbd v1.5.1PL2 Copyright (c) Steve Scherf et al.
# Submitted via: Collectorz.com_Music_Collector 6.11
#
DISCID=020def13
DTITLE=Hutto, J.B. - Stompin' At Mother Blues
DYEAR=2004
DGENRE=Blues
TTITLE0=Evening Train
TTITLE1=Ain`t It A Cryin` Shame
TTITLE2=When I Get Drunk
TTITLE3=My Soul
TTITLE4=Hawk`s Rock
TTITLE5=If You Change Your Mind
TTITLE6=Hip Shakin`
TTITLE7=Turner`s Rock
TTITLE8=Married Woman Blues
TTITLE9=Alcohol Blues
TTITLE10=Sorry
TTITLE11=Stompin` At Mother Blues
TTITLE12=Lonely Heartaches
TTITLE13=Love Retirement (Want Ad)
TTITLE14=Studio Chatter
TTITLE15=Precious Stone (Alternate)
TTITLE16=Dandruff
TTITLE17=Guilty Heart
TTITLE18=Young Hawk`s Crawl (Alternate)
EXTD=
EXTT0=
EXTT1=
EXTT2=
EXTT3=
EXTT4=
EXTT5=
EXTT6=
EXTT7=
EXTT8=
EXTT9=
EXTT10=
EXTT11=
EXTT12=
EXTT13=
EXTT14=
EXTT15=
EXTT16=
EXTT17=
EXTT18=
PLAYORDER=
